<svg width="582" height="582" viewBox="0 0 582 582" fill="none" xmlns="http://www.w3.org/2000/svg">
<path fill-rule="evenodd" clip-rule="evenodd" d="M582 291C582 451.716 451.716 582 291 582C130.285 582 0 451.716 0 291C0 130.285 130.285 0 291 0C451.716 0 582 130.285 582 291ZM213.401 241.423C240.78 241.423 262.978 219.226 262.978 191.844C262.978 164.465 240.78 142.267 213.401 142.267C186.019 142.267 163.822 164.465 163.822 191.844C163.822 219.226 186.019 241.423 213.401 241.423ZM368.599 241.423C395.981 241.423 418.178 219.226 418.178 191.844C418.178 164.465 395.981 142.267 368.599 142.267C341.22 142.267 319.022 164.465 319.022 191.844C319.022 219.226 341.22 241.423 368.599 241.423ZM293.155 392.311C226.49 392.311 172.445 338.267 172.445 271.601H120.711C120.711 366.838 197.918 444.046 293.155 444.046C388.395 444.046 465.6 366.838 465.6 271.601H413.866C413.866 338.267 359.823 392.311 293.155 392.311Z" fill="#EB2FAC"/>
</svg>
